HIERARCHY
ROOT Hips
{
    OFFSET 0.000000 0.000000 0.000000
    CHANNELS 6 Xposition Yposition Zposition Zrotation Xrotation Yrotation
    JOINT Spine
    {
        OFFSET -0.000000 14.517291 0.000000
        CHANNELS 3 Zrotation Xrotation Yrotation
        JOINT Spine1
        {
            OFFSET -0.000000 37.558300 0.000000
            CHANNELS 3 Zrotation Xrotation Yrotation
            JOINT Neck
            {
                OFFSET -0.000000 37.404057 3.400369
                CHANNELS 3 Zrotation Xrotation Yrotation
                JOINT Head
                {
                    OFFSET -0.000000 24.785618 -3.540803
                    CHANNELS 3 Zrotation Xrotation Yrotation
                    End Site
                    {
                        OFFSET -0.000000 35.408028 0.000000
                    }
                }
            }
            JOINT LeftShoulder
            {
                OFFSET 6.992933 33.973492 -0.192664
                CHANNELS 3 Zrotation Xrotation Yrotation
                JOINT LeftArm
                {
                    OFFSET 21.527611 0.000000 0.000000
                    CHANNELS 3 Zrotation Xrotation Yrotation
                    JOINT LeftForeArm
                    {
                        OFFSET 56.353916 0.000000 0.000000
                        CHANNELS 3 Zrotation Xrotation Yrotation
                        JOINT LeftHand
                        {
                            OFFSET 47.774071 0.000000 0.000000
                            CHANNELS 3 Zrotation Xrotation Yrotation
                            End Site
                            {
                                OFFSET 26.556021 0.000000 0.000000
                            }
                        }
                    }
                }
            }
            JOINT RightShoulder
            {
                OFFSET -7.065357 33.973492 -0.192664
                CHANNELS 3 Zrotation Xrotation Yrotation
                JOINT RightArm
                {
                    OFFSET -21.527611 0.000000 0.000000
                    CHANNELS 3 Zrotation Xrotation Yrotation
                    JOINT RightForeArm
                    {
                        OFFSET -56.353916 0.000000 0.000000
                        CHANNELS 3 Zrotation Xrotation Yrotation
                        JOINT RightHand
                        {
                            OFFSET -47.774071 0.000000 0.000000
                            CHANNELS 3 Zrotation Xrotation Yrotation
                            End Site
                            {
                                OFFSET -26.556021 0.000000 0.000000
                            }
                        }
                    }
                }
            }
        }
    }
    JOINT LeftUpLeg
    {
        OFFSET 17.704014 0.000000 0.000000
        CHANNELS 3 Zrotation Xrotation Yrotation
        JOINT LeftLeg
        {
            OFFSET -0.000000 -81.181816 0.000000
            CHANNELS 3 Zrotation Xrotation Yrotation
            JOINT LeftFoot
            {
                OFFSET -0.000000 -62.821102 0.000000
                CHANNELS 3 Zrotation Xrotation Yrotation
                JOINT LeftToeBase
                {
                    OFFSET -0.000000 -11.507608 26.556021
                    CHANNELS 3 Zrotation Xrotation Yrotation
                    End Site
                    {
                        OFFSET -0.000000 0.000000 7.081605
                    }
                }
            }
        }
    }
    JOINT RightUpLeg
    {
        OFFSET -17.704014 0.000000 0.000000
        CHANNELS 3 Zrotation Xrotation Yrotation
        JOINT RightLeg
        {
            OFFSET -0.000000 -81.181816 0.000000
            CHANNELS 3 Zrotation Xrotation Yrotation
            JOINT RightFoot
            {
                OFFSET -0.000000 -62.821102 0.000000
                CHANNELS 3 Zrotation Xrotation Yrotation
                JOINT RightToeBase
                {
                    OFFSET -0.000000 -11.507608 26.556021
                    CHANNELS 3 Zrotation Xrotation Yrotation
                    End Site
                    {
                        OFFSET -0.000000 0.000000 7.081605
                    }
                }
            }
        }
    }
}
MOTION
Frames:    12
Frame Time:    0.008333
26.718822    145.391846    56.136086    7.135724    27.100386    -75.140114    -3.938527    1.908202    -1.594555    -6.284934    -4.027448    -0.773193    17.427944    -2.114503    12.510201    -8.793100    4.643910    9.192849    9.828166    1.208183    -16.442665    -8.287955    -6.219901    -18.170586    14.727955    1.355427    -45.402958    -3.288789    8.862632    -44.359661    -12.649363    -3.584395    -6.899283    28.863588    -23.941502    40.373699    3.937294    -28.609098    104.536003    18.210821    -28.541697    31.428591    70.777847    -33.104431    33.490059    -44.532215    51.702347    9.538761    0.133369    -20.838886    48.741245    0.000000    0.000000    0.000000    -7.528831    -26.217899    -19.409048    7.058709    29.172810    -10.584930    15.151103    4.593857    -0.078354    0.000000    0.000000    0.000000    
26.689640    145.391388    56.132454    7.120721    27.073139    -75.132584    -3.929005    1.921600    -1.580587    -6.285135    -4.041533    -0.769347    17.456984    -2.104056    12.509560    -8.832853    4.635323    9.184127    9.851849    1.202971    -16.460415    -8.305694    -6.180156    -18.160328    14.762254    1.319378    -45.380283    -3.319525    8.849846    -44.341579    -12.644030    -3.582868    -6.897655    28.851379    -23.956554    40.364395    3.908438    -28.659248    104.508682    18.242756    -28.544588    31.454742    70.742691    -33.071884    33.490894    -44.507751    51.694328    9.523599    0.198498    -20.783190    48.703751    0.000000    0.000000    0.000000    -7.557626    -26.188040    -19.377371    7.095639    29.180202    -10.624560    15.167459    4.566053    -0.060588    0.000000    0.000000    0.000000    
26.658768    145.389557    56.131927    7.101904    27.041460    -75.124496    -3.920819    1.932681    -1.568230    -6.268682    -4.051459    -0.765328    17.425062    -2.075273    12.501693    -8.806962    4.591661    9.185166    9.837802    1.181802    -16.487951    -8.299485    -6.166367    -18.129898    14.740926    1.328006    -45.370441    -3.306976    8.842381    -44.327969    -12.655200    -3.564698    -6.907738    28.830925    -23.921837    40.379601    3.845443    -28.776625    104.476196    18.260666    -28.580536    31.471142    70.699738    -33.041321    33.476372    -44.505909    51.682541    9.531921    0.128664    -20.821613    48.693409    0.000000    0.000000    0.000000    -7.592671    -26.153841    -19.341568    7.142415    29.189732    -10.675579    15.173820    4.537701    -0.051317    0.000000    0.000000    0.000000    
26.635841    145.389206    56.127781    7.098280    27.014439    -75.113693    -3.906005    1.935672    -1.563227    -6.258133    -4.064019    -0.763868    17.459028    -2.058566    12.498937    -8.868006    4.583492    9.172215    9.845387    1.181666    -16.504570    -8.302988    -6.204100    -18.127510    14.684318    1.371747    -45.362400    -3.274729    8.847790    -44.331112    -12.669088    -3.537887    -6.917871    28.823530    -23.898378    40.398510    3.776755    -28.892975    104.457634    18.255680    -28.618744    31.474319    70.662437    -33.030964    33.478645    -44.481487    51.677452    9.515823    0.121088    -20.815023    48.677464    0.000000    0.000000    0.000000    -7.630915    -26.135721    -19.335062    7.175467    29.202564    -10.731521    15.168700    4.517620    -0.014348    0.000000    0.000000    0.000000    
26.610950    145.389053    56.122501    7.092793    26.992212    -75.112991    -3.887156    1.940925    -1.557036    -6.228451    -4.086621    -0.761971    17.460062    -2.070589    12.493604    -8.895175    4.636185    9.165910    9.825699    1.217483    -16.480055    -8.299908    -6.238570    -18.168200    14.673245    1.407975    -45.331039    -3.245718    8.861911    -44.313290    -12.703722    -3.502467    -6.923562    28.846823    -23.885815    40.435726    3.718481    -28.987518    104.450554    18.251108    -28.647352    31.478823    70.638321    -33.007965    33.470341    -44.480385    51.666294    9.506576    0.121518    -20.800371    48.665367    0.000000    0.000000    0.000000    -7.657703    -26.119553    -19.324335    7.205430    29.214872    -10.774713    15.157393    4.499900    0.020994    0.000000    0.000000    0.000000    
26.585358    145.393417    56.112755    7.089793    26.966984    -75.107338    -3.844873    1.901197    -1.562496    -6.268473    -4.033850    -0.761739    17.520094    -2.110680    12.513356    -8.921463    4.698190    9.172146    9.874998    1.221019    -16.464909    -8.335424    -6.276247    -18.190283    14.708612    1.438126    -45.297699    -3.284260    8.917340    -44.320969    -12.666067    -3.541802    -6.911325    28.841923    -23.883846    40.433586    3.685702    -29.013277    104.440155    18.286329    -28.614161    31.554958    70.606293    -32.989174    33.454567    -44.468979    51.643307    9.472639    0.117769    -20.790775    48.683479    0.000000    0.000000    0.000000    -7.686316    -26.100925    -19.322588    7.231336    29.217493    -10.822182    15.156707    4.490376    0.059206    0.000000    0.000000    0.000000    
26.565414    145.398300    56.102253    7.098124    26.946491    -75.111511    -3.815735    1.895563    -1.558738    -6.248190    -4.077528    -0.761861    17.524002    -2.073505    12.508185    -8.935475    4.704866    9.170990    9.863063    1.250071    -16.476955    -8.347614    -6.249257    -18.186512    14.730605    1.422083    -45.271069    -3.318888    8.921241    -44.339024    -12.672435    -3.525611    -6.876816    28.847227    -23.909979    40.425282    3.687064    -29.011538    104.463577    18.306032    -28.612705    31.542473    70.579338    -32.976360    33.462799    -44.434593    51.633751    9.450296    0.181313    -20.724997    48.673790    0.000000    0.000000    0.000000    -7.710838    -26.102234    -19.319641    7.248811    29.234329    -10.842181    15.156770    4.473957    0.077968    0.000000    0.000000    0.000000    
26.538826    145.404129    56.097466    7.095971    26.916786    -75.113716    -3.790142    1.877413    -1.550025    -6.235198    -4.064199    -0.757439    17.556702    -2.061997    12.515993    -8.961555    4.680545    9.170812    9.899995    1.330961    -16.368605    -8.384332    -6.315737    -18.352961    14.701364    1.438691    -45.227482    -3.300595    8.910352    -44.308445    -12.668929    -3.554583    -6.866971    28.850742    -23.924643    40.425648    3.672962    -29.009756    104.477341    18.263855    -28.617140    31.475018    70.538727    -32.947548    33.429295    -44.434090    51.597755    9.429461    0.123687    -20.754112    48.683929    0.000000    0.000000    0.000000    -7.741874    -26.089281    -19.313908    7.274734    29.246166    -10.853244    15.146056    4.456831    0.063942    0.000000    0.000000    0.000000    
26.515091    145.411865    56.089592    7.093527    26.879511    -75.117813    -3.766957    1.867193    -1.536559    -6.234062    -4.057913    -0.752375    17.586422    -2.067249    12.519945    -8.967402    4.685245    9.168785    9.937367    1.325909    -16.364794    -8.422636    -6.291381    -18.372368    14.688588    1.412363    -45.225430    -3.333407    8.890738    -44.274651    -12.635773    -3.560564    -6.872108    28.829708    -23.912174    40.445385    3.651296    -29.064505    104.489311    18.274527    -28.647886    31.459524    70.484512    -32.924885    33.417500    -44.388180    51.590130    9.394114    0.096423    -20.755154    48.676773    0.000000    0.000000    0.000000    -7.773890    -26.077814    -19.316664    7.278489    29.262230    -10.874050    15.133699    4.442573    0.110768    0.000000    0.000000    0.000000    
26.486216    145.424683    56.081539    7.085821    26.837685    -75.121918    -3.734111    1.844002    -1.524104    -6.255956    -4.027104    -0.746836    17.692017    -2.076017    12.551890    -9.047303    4.711854    9.176668    9.981925    1.328693    -16.368603    -8.456408    -6.312932    -18.373434    14.696224    1.441399    -45.230938    -3.350358    8.930356    -44.275509    -12.573721    -3.594358    -6.860425    28.790533    -23.868807    40.441200    3.618609    -29.150833    104.513580    18.295473    -28.684219    31.523090    70.418320    -32.894489    33.388443    -44.342667    51.573086    9.368444    0.085623    -20.741198    48.664722    0.000000    0.000000    0.000000    -7.807844    -26.055281    -19.318245    7.287807    29.272469    -10.859046    15.123826    4.427876    0.116835    0.000000    0.000000    0.000000    
26.459974    145.435410    56.074429    7.074784    26.788874    -75.123848    -3.725157    1.845461    -1.505216    -6.211290    -4.028227    -0.739126    17.714993    -2.101480    12.552549    -9.075711    4.761058    9.170416    9.973927    1.336568    -16.364725    -8.482580    -6.397340    -18.400705    14.616286    1.528483    -45.249580    -3.320764    8.973128    -44.256222    -12.578105    -3.575104    -6.885485    28.823681    -23.887604    40.497688    3.590520    -29.153214    104.514420    18.290527    -28.646139    31.585197    70.342148    -32.869095    33.339851    -44.317200    51.555058    9.348445    0.146400    -20.696247    48.689720    0.000000    0.000000    0.000000    -7.842104    -26.032026    -19.344316    7.272344    29.288704    -10.836053    15.116715    4.408052    0.131375    0.000000    0.000000    0.000000    
26.433033    145.449921    56.062519    7.062496    26.733995    -75.125954    -3.711876    1.845363    -1.489729    -6.190508    -4.008363    -0.731959    17.782549    -2.152521    12.591111    -9.112680    4.818776    9.191862    9.996272    1.339226    -16.329742    -8.514627    -6.396560    -18.449844    14.597143    1.514235    -45.269562    -3.308975    8.947231    -44.193523    -12.581538    -3.561236    -6.879974    28.871138    -23.936903    40.501060    3.581794    -29.155615    104.560135    18.366308    -28.621054    31.594654    70.251846    -32.847496    33.296116    -44.243111    51.553211    9.290875    0.045095    -20.737089    48.685303    0.000000    0.000000    0.000000    -7.880672    -26.006269    -19.368259    7.258002    29.305170    -10.813515    15.121779    4.386848    0.149382    0.000000    0.000000    0.000000    
